%TF.GenerationSoftware,KiCad,Pcbnew,9.0.7*%
%TF.CreationDate,2026-07-18T21:44:55-07:00*%
%TF.ProjectId,Mini7,4d696e69-372e-46b6-9963-61645f706362,rev?*%
%TF.SameCoordinates,Original*%
%TF.FileFunction,Copper,L2,Bot*%
%TF.FilePolarity,Positive*%
%FSLAX46Y46*%
G04 Gerber Fmt 4.6, Leading zero omitted, Abs format (unit mm)*
G04 Created by KiCad (PCBNEW 9.0.7) date 2026-07-18 21:44:55*
%MOMM*%
%LPD*%
G01*
G04 APERTURE LIST*
G04 Aperture macros list*
%AMRoundRect*
0 Rectangle with rounded corners*
0 $1 Rounding radius*
0 $2 $3 $4 $5 $6 $7 $8 $9 X,Y pos of 4 corners*
0 Add a 4 corners polygon primitive as box body*
4,1,4,$2,$3,$4,$5,$6,$7,$8,$9,$2,$3,0*
0 Add four circle primitives for the rounded corners*
1,1,$1+$1,$2,$3*
1,1,$1+$1,$4,$5*
1,1,$1+$1,$6,$7*
1,1,$1+$1,$8,$9*
0 Add four rect primitives between the rounded corners*
20,1,$1+$1,$2,$3,$4,$5,0*
20,1,$1+$1,$4,$5,$6,$7,0*
20,1,$1+$1,$6,$7,$8,$9,0*
20,1,$1+$1,$8,$9,$2,$3,0*%
G04 Aperture macros list end*
%TA.AperFunction,ComponentPad*%
%ADD10C,2.500000*%
%TD*%
%TA.AperFunction,ComponentPad*%
%ADD11R,1.700000X1.700000*%
%TD*%
%TA.AperFunction,ComponentPad*%
%ADD12C,1.700000*%
%TD*%
%TA.AperFunction,ComponentPad*%
%ADD13O,1.500000X2.500000*%
%TD*%
%TA.AperFunction,ComponentPad*%
%ADD14O,2.500000X1.500000*%
%TD*%
%TA.AperFunction,SMDPad,CuDef*%
%ADD15RoundRect,0.237500X0.250000X0.237500X-0.250000X0.237500X-0.250000X-0.237500X0.250000X-0.237500X0*%
%TD*%
%TA.AperFunction,SMDPad,CuDef*%
%ADD16RoundRect,0.237500X-0.300000X-0.237500X0.300000X-0.237500X0.300000X0.237500X-0.300000X0.237500X0*%
%TD*%
%TA.AperFunction,SMDPad,CuDef*%
%ADD17RoundRect,0.237500X0.237500X-0.300000X0.237500X0.300000X-0.237500X0.300000X-0.237500X-0.300000X0*%
%TD*%
%TA.AperFunction,SMDPad,CuDef*%
%ADD18RoundRect,0.237500X-0.237500X0.300000X-0.237500X-0.300000X0.237500X-0.300000X0.237500X0.300000X0*%
%TD*%
%TA.AperFunction,ComponentPad*%
%ADD19RoundRect,0.250000X0.350000X0.625000X-0.350000X0.625000X-0.350000X-0.625000X0.350000X-0.625000X0*%
%TD*%
%TA.AperFunction,ComponentPad*%
%ADD20O,1.200000X1.750000*%
%TD*%
%TA.AperFunction,SMDPad,CuDef*%
%ADD21RoundRect,0.250000X0.337500X0.475000X-0.337500X0.475000X-0.337500X-0.475000X0.337500X-0.475000X0*%
%TD*%
%TA.AperFunction,ViaPad*%
%ADD22C,0.600000*%
%TD*%
%TA.AperFunction,Conductor*%
%ADD23C,0.200000*%
%TD*%
G04 APERTURE END LIST*
D10*
%TO.P,S4,1,1*%
%TO.N,S4*%
X110490000Y-64135000D03*
%TO.P,S4,2,2*%
%TO.N,GND*%
X116840000Y-61595000D03*
%TD*%
%TO.P,S7,1,1*%
%TO.N,S7*%
X120015000Y-83185000D03*
%TO.P,S7,2,2*%
%TO.N,GND*%
X126365000Y-80645000D03*
%TD*%
D11*
%TO.P,J3,1,SDA*%
%TO.N,SDA*%
X57150000Y-41354375D03*
D12*
%TO.P,J3,2,SCL*%
%TO.N,SCL*%
X57150000Y-43894375D03*
%TO.P,J3,3,VCC*%
%TO.N,+3V3*%
X57150000Y-46434375D03*
%TO.P,J3,4,GND*%
%TO.N,GND*%
X57150000Y-48974375D03*
%TD*%
D10*
%TO.P,S5,1,1*%
%TO.N,S5*%
X129540000Y-64135000D03*
%TO.P,S5,2,2*%
%TO.N,GND*%
X135890000Y-61595000D03*
%TD*%
%TO.P,S1,1,1*%
%TO.N,S1*%
X100965000Y-45085000D03*
%TO.P,S1,2,2*%
%TO.N,GND*%
X107315000Y-42545000D03*
%TD*%
D13*
%TO.P,U1,1,0*%
%TO.N,S1*%
X164941250Y-74795000D03*
%TO.P,U1,2,1*%
%TO.N,S2*%
X162401250Y-74795000D03*
%TO.P,U1,3,2*%
%TO.N,S3*%
X159861250Y-74795000D03*
%TO.P,U1,4,3*%
%TO.N,S4*%
X157321250Y-74795000D03*
%TO.P,U1,5,4*%
%TO.N,S5*%
X154781250Y-74795000D03*
%TO.P,U1,6,5*%
%TO.N,S6*%
X152241250Y-74795000D03*
%TO.P,U1,7,6*%
%TO.N,S7*%
X149701250Y-74795000D03*
%TO.P,U1,8,7*%
%TO.N,SCL*%
X147161250Y-74795000D03*
%TO.P,U1,9,8*%
%TO.N,SDA*%
X144621250Y-74795000D03*
D14*
%TO.P,U1,10,9*%
%TO.N,Pin10*%
X144121250Y-71755000D03*
%TO.P,U1,11,10*%
%TO.N,Pin11*%
X144121250Y-69215000D03*
%TO.P,U1,12,11*%
%TO.N,Pin12*%
X144121250Y-66675000D03*
%TO.P,U1,13,12*%
%TO.N,unconnected-(U1-12-Pad13)*%
X144121250Y-64135000D03*
%TO.P,U1,14,13*%
%TO.N,unconnected-(U1-13-Pad14)*%
X144121250Y-61595000D03*
D13*
%TO.P,U1,15,14*%
%TO.N,unconnected-(U1-14-Pad15)*%
X144621250Y-58555000D03*
%TO.P,U1,16,15*%
%TO.N,unconnected-(U1-15-Pad16)*%
X147161250Y-58555000D03*
%TO.P,U1,17,26*%
%TO.N,unconnected-(U1-26-Pad17)*%
X149701250Y-58555000D03*
%TO.P,U1,18,27*%
%TO.N,unconnected-(U1-27-Pad18)*%
X152241250Y-58555000D03*
%TO.P,U1,19,28*%
%TO.N,unconnected-(U1-28-Pad19)*%
X154781250Y-58555000D03*
%TO.P,U1,20,29*%
%TO.N,unconnected-(U1-29-Pad20)*%
X157321250Y-58555000D03*
%TO.P,U1,21,3V3*%
%TO.N,+3V3*%
X159861250Y-58555000D03*
%TO.P,U1,22,GND*%
%TO.N,GND*%
X162401250Y-58555000D03*
%TO.P,U1,23,5V*%
%TO.N,+SWV*%
X164941250Y-58555000D03*
%TD*%
D10*
%TO.P,S2,1,1*%
%TO.N,S2*%
X120015000Y-45085000D03*
%TO.P,S2,2,2*%
%TO.N,GND*%
X126365000Y-42545000D03*
%TD*%
%TO.P,S3,1,1*%
%TO.N,S3*%
X91440000Y-64135000D03*
%TO.P,S3,2,2*%
%TO.N,GND*%
X97790000Y-61595000D03*
%TD*%
%TO.P,S6,1,1*%
%TO.N,S6*%
X100965000Y-83185000D03*
%TO.P,S6,2,2*%
%TO.N,GND*%
X107315000Y-80645000D03*
%TD*%
D11*
%TO.P,J4,1,VIN*%
%TO.N,+BV*%
X78606250Y-66903125D03*
D12*
%TO.P,J4,2,GND*%
%TO.N,GND*%
X78606250Y-64363125D03*
%TO.P,J4,3,SCL*%
%TO.N,SCL*%
X78606250Y-61823125D03*
%TO.P,J4,4,SDA*%
%TO.N,SDA*%
X78606250Y-59283125D03*
%TD*%
D15*
%TO.P,R2,1*%
%TO.N,+3V3*%
X155415625Y-67865625D03*
%TO.P,R2,2*%
%TO.N,SCL*%
X153590625Y-67865625D03*
%TD*%
D16*
%TO.P,C2,1*%
%TO.N,+3V3*%
X159543750Y-61912500D03*
%TO.P,C2,2*%
%TO.N,GND*%
X161268750Y-61912500D03*
%TD*%
D11*
%TO.P,SW1,1,+SV*%
%TO.N,+SV*%
X140493750Y-45243750D03*
D12*
%TO.P,SW1,2,+SWV*%
%TO.N,+SWV*%
X143033750Y-45243750D03*
%TD*%
D17*
%TO.P,C5,1*%
%TO.N,+BV*%
X82153125Y-67537500D03*
%TO.P,C5,2*%
%TO.N,GND*%
X82153125Y-65812500D03*
%TD*%
D18*
%TO.P,C4,1*%
%TO.N,+3V3*%
X60721875Y-47625000D03*
%TO.P,C4,2*%
%TO.N,GND*%
X60721875Y-49350000D03*
%TD*%
D11*
%TO.P,J1,1,SCK*%
%TO.N,GND*%
X135731250Y-79771875D03*
D12*
%TO.P,J1,2,BCK*%
%TO.N,Pin10*%
X135731250Y-82311875D03*
%TO.P,J1,3,DIN*%
%TO.N,Pin11*%
X135731250Y-84851875D03*
%TO.P,J1,4,LCK*%
%TO.N,Pin12*%
X135731250Y-87391875D03*
%TO.P,J1,5,GND*%
%TO.N,GND*%
X135731250Y-89931875D03*
%TO.P,J1,6,VIN*%
%TO.N,+3V3*%
X135731250Y-92471875D03*
%TD*%
D19*
%TO.P,BT1,1,Positive*%
%TO.N,+BV*%
X143684375Y-51196875D03*
D20*
%TO.P,BT1,2,Negative*%
%TO.N,GND*%
X141684375Y-51196875D03*
%TD*%
D21*
%TO.P,C1,1*%
%TO.N,+SWV*%
X165496875Y-61912500D03*
%TO.P,C1,2*%
%TO.N,GND*%
X163421875Y-61912500D03*
%TD*%
D11*
%TO.P,J2,1,OUT+*%
%TO.N,+SV*%
X135731250Y-45085000D03*
D12*
%TO.P,J2,2,B+*%
%TO.N,+BV*%
X135731250Y-47625000D03*
%TD*%
D15*
%TO.P,R1,1*%
%TO.N,+3V3*%
X155415625Y-65484375D03*
%TO.P,R1,2*%
%TO.N,SDA*%
X153590625Y-65484375D03*
%TD*%
D11*
%TO.P,J5,1,B-*%
%TO.N,GND*%
X135731250Y-52387500D03*
D12*
%TO.P,J5,2,OUT-*%
X135731250Y-54927500D03*
%TD*%
D17*
%TO.P,C3,1*%
%TO.N,+3V3*%
X139303125Y-91350000D03*
%TO.P,C3,2*%
%TO.N,GND*%
X139303125Y-89625000D03*
%TD*%
D22*
%TO.N,+3V3*%
X84534375Y-59531250D03*
%TO.N,SDA*%
X90487500Y-73818750D03*
%TO.N,SCL*%
X90487500Y-75009375D03*
%TO.N,S3*%
X150018750Y-67865625D03*
%TO.N,S4*%
X140493750Y-67865625D03*
%TO.N,S5*%
X148828125Y-69056250D03*
%TO.N,S7*%
X139370202Y-84601452D03*
%TD*%
D23*
%TO.N,+BV*%
X123312250Y-60044000D02*
X101534446Y-60044000D01*
X135731250Y-47625000D02*
X123312250Y-60044000D01*
X79240625Y-67537500D02*
X78606250Y-66903125D01*
X87106625Y-62584000D02*
X82153125Y-67537500D01*
X97284696Y-64293750D02*
X95574946Y-62584000D01*
X95574946Y-62584000D02*
X87106625Y-62584000D01*
X101534446Y-60044000D02*
X97284696Y-64293750D01*
X82153125Y-67537500D02*
X79240625Y-67537500D01*
%TO.N,GND*%
X57525625Y-49350000D02*
X57150000Y-48974375D01*
X60721875Y-49350000D02*
X57525625Y-49350000D01*
X97790000Y-61595000D02*
X86370625Y-61595000D01*
X60721875Y-49350000D02*
X80306250Y-49350000D01*
X135731250Y-89931875D02*
X138996250Y-89931875D01*
X78675625Y-64293750D02*
X78606250Y-64363125D01*
X161268750Y-61912500D02*
X163421875Y-61912500D01*
X138996250Y-89931875D02*
X139303125Y-89625000D01*
X80962500Y-64293750D02*
X78675625Y-64293750D01*
X162401250Y-59055000D02*
X163421875Y-60075625D01*
X80055625Y-65812500D02*
X78606250Y-64363125D01*
X80306250Y-49350000D02*
X80962500Y-50006250D01*
X82153125Y-65812500D02*
X80055625Y-65812500D01*
X163421875Y-60075625D02*
X163421875Y-61912500D01*
X80962500Y-50006250D02*
X80962500Y-64293750D01*
X86370625Y-61595000D02*
X82153125Y-65812500D01*
%TO.N,+SWV*%
X165496875Y-61912500D02*
X165496875Y-59610625D01*
X165496875Y-59610625D02*
X164941250Y-59055000D01*
%TO.N,+3V3*%
X154639625Y-68641625D02*
X155415625Y-67865625D01*
X159543750Y-59372500D02*
X159861250Y-59055000D01*
X140493750Y-90159375D02*
X140493750Y-83343750D01*
X155415625Y-67865625D02*
X155415625Y-65484375D01*
X148212250Y-74297662D02*
X153868287Y-68641625D01*
X155415625Y-65484375D02*
X155971875Y-65484375D01*
X84534375Y-52387500D02*
X84534375Y-59531250D01*
X57150000Y-46434375D02*
X58340625Y-47625000D01*
X155971875Y-65484375D02*
X159543750Y-61912500D01*
X153868287Y-68641625D02*
X154639625Y-68641625D01*
X148212250Y-75730338D02*
X148212250Y-74297662D01*
X60721875Y-47625000D02*
X79771875Y-47625000D01*
X139303125Y-91350000D02*
X136853125Y-91350000D01*
X159543750Y-61912500D02*
X159543750Y-59372500D01*
X139303125Y-91350000D02*
X140493750Y-90159375D01*
X140493750Y-83343750D02*
X140598838Y-83343750D01*
X140598838Y-83343750D02*
X148212250Y-75730338D01*
X58340625Y-47625000D02*
X60721875Y-47625000D01*
X79771875Y-47625000D02*
X84534375Y-52387500D01*
X136853125Y-91350000D02*
X135731250Y-92471875D01*
%TO.N,SDA*%
X153431875Y-65484375D02*
X144621250Y-74295000D01*
X144621250Y-74295000D02*
X90963750Y-74295000D01*
X153590625Y-65484375D02*
X153431875Y-65484375D01*
X90963750Y-74295000D02*
X90487500Y-73818750D01*
%TO.N,SCL*%
X147161250Y-74295000D02*
X145110250Y-76346000D01*
X91824125Y-76346000D02*
X90487500Y-75009375D01*
X153590625Y-67865625D02*
X147161250Y-74295000D01*
X145110250Y-76346000D02*
X91824125Y-76346000D01*
%TO.N,S3*%
X128897554Y-62584000D02*
X134685554Y-62584000D01*
X115289000Y-62237446D02*
X116197554Y-63146000D01*
X107736804Y-64694750D02*
X110194108Y-62237446D01*
X128335554Y-63146000D02*
X128897554Y-62584000D01*
X135835554Y-63734000D02*
X141733912Y-63734000D01*
X96558846Y-64135000D02*
X97118596Y-64694750D01*
X116197554Y-63146000D02*
X128335554Y-63146000D01*
X97118596Y-64694750D02*
X107736804Y-64694750D01*
X143623912Y-65624000D02*
X147777125Y-65624000D01*
X91440000Y-64135000D02*
X96558846Y-64135000D01*
X147777125Y-65624000D02*
X150018750Y-67865625D01*
X110194108Y-62237446D02*
X115289000Y-62237446D01*
X134685554Y-62584000D02*
X135835554Y-63734000D01*
X141733912Y-63734000D02*
X143623912Y-65624000D01*
%TO.N,S4*%
X110490000Y-64135000D02*
X123996174Y-64135000D01*
X139333375Y-69026000D02*
X140493750Y-67865625D01*
X128887174Y-69026000D02*
X139333375Y-69026000D01*
X123996174Y-64135000D02*
X128887174Y-69026000D01*
%TO.N,S5*%
X147497875Y-67726000D02*
X148828125Y-69056250D01*
X139594912Y-64135000D02*
X143185912Y-67726000D01*
X143185912Y-67726000D02*
X147497875Y-67726000D01*
X129540000Y-64135000D02*
X139594912Y-64135000D01*
%TO.N,S6*%
X140894750Y-91064009D02*
X140894750Y-83614938D01*
X142921312Y-83614938D02*
X152241250Y-74295000D01*
X138335884Y-93622875D02*
X140894750Y-91064009D01*
X100965000Y-83185000D02*
X114471174Y-83185000D01*
X124909049Y-93622875D02*
X138335884Y-93622875D01*
X140894750Y-83614938D02*
X142921312Y-83614938D01*
X114471174Y-83185000D02*
X124909049Y-93622875D01*
%TO.N,S7*%
X138231625Y-83462875D02*
X139370202Y-84601452D01*
X120015000Y-83185000D02*
X134976615Y-83185000D01*
X134976615Y-83185000D02*
X135254490Y-83462875D01*
X135254490Y-83462875D02*
X138231625Y-83462875D01*
%TD*%
M02*
