%TF.GenerationSoftware,KiCad,Pcbnew,9.0.7*%
%TF.CreationDate,2026-07-18T21:44:55-07:00*%
%TF.ProjectId,Mini7,4d696e69-372e-46b6-9963-61645f706362,rev?*%
%TF.SameCoordinates,Original*%
%TF.FileFunction,Soldermask,Bot*%
%TF.FilePolarity,Negative*%
%FSLAX46Y46*%
G04 Gerber Fmt 4.6, Leading zero omitted, Abs format (unit mm)*
G04 Created by KiCad (PCBNEW 9.0.7) date 2026-07-18 21:44:55*
%MOMM*%
%LPD*%
G01*
G04 APERTURE LIST*
G04 Aperture macros list*
%AMRoundRect*
0 Rectangle with rounded corners*
0 $1 Rounding radius*
0 $2 $3 $4 $5 $6 $7 $8 $9 X,Y pos of 4 corners*
0 Add a 4 corners polygon primitive as box body*
4,1,4,$2,$3,$4,$5,$6,$7,$8,$9,$2,$3,0*
0 Add four circle primitives for the rounded corners*
1,1,$1+$1,$2,$3*
1,1,$1+$1,$4,$5*
1,1,$1+$1,$6,$7*
1,1,$1+$1,$8,$9*
0 Add four rect primitives between the rounded corners*
20,1,$1+$1,$2,$3,$4,$5,0*
20,1,$1+$1,$4,$5,$6,$7,0*
20,1,$1+$1,$6,$7,$8,$9,0*
20,1,$1+$1,$8,$9,$2,$3,0*%
G04 Aperture macros list end*
%ADD10C,1.750000*%
%ADD11C,4.000000*%
%ADD12C,2.500000*%
%ADD13R,1.700000X1.700000*%
%ADD14C,1.700000*%
%ADD15O,1.500000X2.500000*%
%ADD16O,2.500000X1.500000*%
%ADD17RoundRect,0.237500X0.250000X0.237500X-0.250000X0.237500X-0.250000X-0.237500X0.250000X-0.237500X0*%
%ADD18RoundRect,0.237500X-0.300000X-0.237500X0.300000X-0.237500X0.300000X0.237500X-0.300000X0.237500X0*%
%ADD19RoundRect,0.237500X0.237500X-0.300000X0.237500X0.300000X-0.237500X0.300000X-0.237500X-0.300000X0*%
%ADD20RoundRect,0.237500X-0.237500X0.300000X-0.237500X-0.300000X0.237500X-0.300000X0.237500X0.300000X0*%
%ADD21RoundRect,0.250000X0.350000X0.625000X-0.350000X0.625000X-0.350000X-0.625000X0.350000X-0.625000X0*%
%ADD22O,1.200000X1.750000*%
%ADD23RoundRect,0.250000X0.337500X0.475000X-0.337500X0.475000X-0.337500X-0.475000X0.337500X-0.475000X0*%
G04 APERTURE END LIST*
D10*
%TO.C,S4*%
X109220000Y-66675000D03*
D11*
X114300000Y-66675000D03*
D10*
X119380000Y-66675000D03*
D12*
X110490000Y-64135000D03*
X116840000Y-61595000D03*
%TD*%
D10*
%TO.C,S7*%
X118745000Y-85725000D03*
D11*
X123825000Y-85725000D03*
D10*
X128905000Y-85725000D03*
D12*
X120015000Y-83185000D03*
X126365000Y-80645000D03*
%TD*%
D13*
%TO.C,J3*%
X57150000Y-41354375D03*
D14*
X57150000Y-43894375D03*
X57150000Y-46434375D03*
X57150000Y-48974375D03*
%TD*%
D10*
%TO.C,S5*%
X128270000Y-66675000D03*
D11*
X133350000Y-66675000D03*
D10*
X138430000Y-66675000D03*
D12*
X129540000Y-64135000D03*
X135890000Y-61595000D03*
%TD*%
D10*
%TO.C,S1*%
X99695000Y-47625000D03*
D11*
X104775000Y-47625000D03*
D10*
X109855000Y-47625000D03*
D12*
X100965000Y-45085000D03*
X107315000Y-42545000D03*
%TD*%
D15*
%TO.C,U1*%
X164941250Y-74795000D03*
X162401250Y-74795000D03*
X159861250Y-74795000D03*
X157321250Y-74795000D03*
X154781250Y-74795000D03*
X152241250Y-74795000D03*
X149701250Y-74795000D03*
X147161250Y-74795000D03*
X144621250Y-74795000D03*
D16*
X144121250Y-71755000D03*
X144121250Y-69215000D03*
X144121250Y-66675000D03*
X144121250Y-64135000D03*
X144121250Y-61595000D03*
D15*
X144621250Y-58555000D03*
X147161250Y-58555000D03*
X149701250Y-58555000D03*
X152241250Y-58555000D03*
X154781250Y-58555000D03*
X157321250Y-58555000D03*
X159861250Y-58555000D03*
X162401250Y-58555000D03*
X164941250Y-58555000D03*
%TD*%
D10*
%TO.C,S2*%
X118745000Y-47625000D03*
D11*
X123825000Y-47625000D03*
D10*
X128905000Y-47625000D03*
D12*
X120015000Y-45085000D03*
X126365000Y-42545000D03*
%TD*%
D10*
%TO.C,S3*%
X90170000Y-66675000D03*
D11*
X95250000Y-66675000D03*
D10*
X100330000Y-66675000D03*
D12*
X91440000Y-64135000D03*
X97790000Y-61595000D03*
%TD*%
D10*
%TO.C,S6*%
X99695000Y-85725000D03*
D11*
X104775000Y-85725000D03*
D10*
X109855000Y-85725000D03*
D12*
X100965000Y-83185000D03*
X107315000Y-80645000D03*
%TD*%
D13*
%TO.C,J4*%
X78606250Y-66903125D03*
D14*
X78606250Y-64363125D03*
X78606250Y-61823125D03*
X78606250Y-59283125D03*
%TD*%
D17*
%TO.C,R2*%
X155415625Y-67865625D03*
X153590625Y-67865625D03*
%TD*%
D18*
%TO.C,C2*%
X159543750Y-61912500D03*
X161268750Y-61912500D03*
%TD*%
D13*
%TO.C,SW1*%
X140493750Y-45243750D03*
D14*
X143033750Y-45243750D03*
%TD*%
D19*
%TO.C,C5*%
X82153125Y-67537500D03*
X82153125Y-65812500D03*
%TD*%
D20*
%TO.C,C4*%
X60721875Y-47625000D03*
X60721875Y-49350000D03*
%TD*%
D13*
%TO.C,J1*%
X135731250Y-79771875D03*
D14*
X135731250Y-82311875D03*
X135731250Y-84851875D03*
X135731250Y-87391875D03*
X135731250Y-89931875D03*
X135731250Y-92471875D03*
%TD*%
D21*
%TO.C,BT1*%
X143684375Y-51196875D03*
D22*
X141684375Y-51196875D03*
%TD*%
D23*
%TO.C,C1*%
X165496875Y-61912500D03*
X163421875Y-61912500D03*
%TD*%
D13*
%TO.C,J2*%
X135731250Y-45085000D03*
D14*
X135731250Y-47625000D03*
%TD*%
D17*
%TO.C,R1*%
X155415625Y-65484375D03*
X153590625Y-65484375D03*
%TD*%
D13*
%TO.C,J5*%
X135731250Y-52387500D03*
D14*
X135731250Y-54927500D03*
%TD*%
D19*
%TO.C,C3*%
X139303125Y-91350000D03*
X139303125Y-89625000D03*
%TD*%
M02*
